<svg id="visual" viewBox="0 0 2000 450" width="2000" height="450" xmlns="http://www.w3.org/2000/svg" xmlns:xlink="http://www.w3.org/1999/xlink" version="1.1"><rect x="0" y="0" width="2000" height="450" fill="#fff"></rect><path d="M0 196L37 210.2C74 224.3 148 252.7 222 262.8C296 273 370 265 444.2 239.2C518.3 213.3 592.7 169.7 666.8 178.5C741 187.3 815 248.7 889 275.7C963 302.7 1037 295.3 1111 278.3C1185 261.3 1259 234.7 1333.2 234.3C1407.3 234 1481.7 260 1555.8 280.3C1630 300.7 1704 315.3 1778 310.7C1852 306 1926 282 1963 270L2000 258L2000 451L1963 451C1926 451 1852 451 1778 451C1704 451 1630 451 1555.8 451C1481.7 451 1407.3 451 1333.2 451C1259 451 1185 451 1111 451C1037 451 963 451 889 451C815 451 741 451 666.8 451C592.7 451 518.3 451 444.2 451C370 451 296 451 222 451C148 451 74 451 37 451L0 451Z" fill="#ec003f" stroke-linecap="round" stroke-linejoin="miter"></path></svg>