<svg id="visual" viewBox="0 0 2000 400" width="2000" height="400" xmlns="http://www.w3.org/2000/svg" xmlns:xlink="http://www.w3.org/1999/xlink" version="1.1"><rect x="0" y="0" width="2000" height="400" fill="#fff"></rect><path d="M0 218L47.7 223.5C95.3 229 190.7 240 285.8 227C381 214 476 177 571.2 167.2C666.3 157.3 761.7 174.7 857 189.7C952.3 204.7 1047.7 217.3 1143 203C1238.3 188.7 1333.7 147.3 1428.8 147.5C1524 147.7 1619 189.3 1714.2 212.3C1809.3 235.3 1904.7 239.7 1952.3 241.8L2000 244L2000 0L1952.3 0C1904.7 0 1809.3 0 1714.2 0C1619 0 1524 0 1428.8 0C1333.7 0 1238.3 0 1143 0C1047.7 0 952.3 0 857 0C761.7 0 666.3 0 571.2 0C476 0 381 0 285.8 0C190.7 0 95.3 0 47.7 0L0 0Z" fill="#ec003f" stroke-linecap="round" stroke-linejoin="miter"></path></svg>