<svg id="visual" viewBox="0 0 900 600" width="900" height="600" xmlns="http://www.w3.org/2000/svg" xmlns:xlink="http://www.w3.org/1999/xlink" version="1.1"><rect x="0" y="0" width="900" height="600" fill="#f4f4f5"></rect><path d="M0 274L16.7 295.2C33.3 316.3 66.7 358.7 100 359.8C133.3 361 166.7 321 200 306.3C233.3 291.7 266.7 302.3 300 333.5C333.3 364.7 366.7 416.3 400 438.8C433.3 461.3 466.7 454.7 500 424.8C533.3 395 566.7 342 600 342.8C633.3 343.7 666.7 398.3 700 410.5C733.3 422.7 766.7 392.3 800 392.3C833.3 392.3 866.7 422.7 883.3 437.8L900 453L900 601L883.3 601C866.7 601 833.3 601 800 601C766.7 601 733.3 601 700 601C666.7 601 633.3 601 600 601C566.7 601 533.3 601 500 601C466.7 601 433.3 601 400 601C366.7 601 333.3 601 300 601C266.7 601 233.3 601 200 601C166.7 601 133.3 601 100 601C66.7 601 33.3 601 16.7 601L0 601Z" fill="#ec003f" stroke-linecap="round" stroke-linejoin="miter"></path></svg>