<svg id="visual" viewBox="0 0 900 600" width="900" height="600" xmlns="http://www.w3.org/2000/svg" xmlns:xlink="http://www.w3.org/1999/xlink" version="1.1"><rect x="0" y="0" width="900" height="600" fill="#f4f4f5"></rect><path d="M0 329L16.7 344.2C33.3 359.3 66.7 389.7 100 400.5C133.3 411.3 166.7 402.7 200 375C233.3 347.3 266.7 300.7 300 310C333.3 319.3 366.7 384.7 400 413.5C433.3 442.3 466.7 434.7 500 416.7C533.3 398.7 566.7 370.3 600 370C633.3 369.7 666.7 397.3 700 419C733.3 440.7 766.7 456.3 800 451.3C833.3 446.3 866.7 420.7 883.3 407.8L900 395L900 601L883.3 601C866.7 601 833.3 601 800 601C766.7 601 733.3 601 700 601C666.7 601 633.3 601 600 601C566.7 601 533.3 601 500 601C466.7 601 433.3 601 400 601C366.7 601 333.3 601 300 601C266.7 601 233.3 601 200 601C166.7 601 133.3 601 100 601C66.7 601 33.3 601 16.7 601L0 601Z" fill="#ec003f" stroke-linecap="round" stroke-linejoin="miter"></path></svg>